<?xml version="1.0" encoding="UTF-8" standalone="no"?>
<!DOCTYPE svg PUBLIC "-//W3C//DTD SVG 1.1//EN" "http://www.w3.org/Graphics/SVG/1.1/DTD/svg11.dtd">
<svg version="1.1" xmlns="http://www.w3.org/2000/svg" xmlns:xlink="http://www.w3.org/1999/xlink" preserveAspectRatio="xMidYMid meet" viewBox="0 0 640 640" width="640" height="640"><defs><path d="M376 -64C376 67.36 263.08 174 124 174C-15.08 174 -128 67.36 -128 -64C-128 -195.36 -15.08 -302 124 -302C263.08 -302 376 -195.36 376 -64Z" id="gnPg5LJH9"></path><path d="M726.22 722C726.22 853.36 613.3 960 474.22 960C335.14 960 222.22 853.36 222.22 722C222.22 590.64 335.14 484 474.22 484C613.3 484 726.22 590.64 726.22 722Z" id="a2pEMF1YMj"></path><path d="M173.11 177.33C173.11 308.69 60.19 415.33 -78.89 415.33C-217.97 415.33 -330.89 308.69 -330.89 177.33C-330.89 45.98 -217.97 -60.67 -78.89 -60.67C60.19 -60.67 173.11 45.98 173.11 177.33Z" id="hGCAy3tLB"></path><path d="M982.22 492.22C982.22 623.58 869.3 730.22 730.22 730.22C591.14 730.22 478.22 623.58 478.22 492.22C478.22 360.87 591.14 254.22 730.22 254.22C869.3 254.22 982.22 360.87 982.22 492.22Z" id="a22zkZjeXR"></path></defs><g><g><g><use xlink:href="#gnPg5LJH9" opacity="1" fill="#ff4242" fill-opacity="1"></use></g><g><use xlink:href="#a2pEMF1YMj" opacity="1" fill="#55c699" fill-opacity="1"></use></g><g><use xlink:href="#hGCAy3tLB" opacity="0.46" fill="#f2ff49" fill-opacity="1"></use></g><g><use xlink:href="#a22zkZjeXR" opacity="0.74" fill="#58355e" fill-opacity="1"></use></g></g></g></svg>