<?xml version="1.0" encoding="UTF-8" standalone="no"?>
<!DOCTYPE svg PUBLIC "-//W3C//DTD SVG 1.1//EN" "http://www.w3.org/Graphics/SVG/1.1/DTD/svg11.dtd">
<svg version="1.1" xmlns="http://www.w3.org/2000/svg" xmlns:xlink="http://www.w3.org/1999/xlink" preserveAspectRatio="xMidYMid meet" viewBox="0 0 1920 1200" width="1920" height="1200"><defs><path d="M832.53 -30.93C832.53 220.82 616.13 425.2 349.58 425.2C83.03 425.2 -133.37 220.82 -133.37 -30.93C-133.37 -282.67 83.03 -487.05 349.58 -487.05C616.13 -487.05 832.53 -282.67 832.53 -30.93Z" id="b67SWXotlp"></path><path d="M2122.94 1264.68C2122.94 1545.32 1881.69 1773.17 1584.54 1773.17C1287.39 1773.17 1046.15 1545.32 1046.15 1264.68C1046.15 984.04 1287.39 756.19 1584.54 756.19C1881.69 756.19 2122.94 984.04 2122.94 1264.68Z" id="a34Gg5TXza"></path><path d="M373.61 433.65C373.61 672.99 167.87 867.3 -85.55 867.3C-338.96 867.3 -544.71 672.99 -544.71 433.65C-544.71 194.31 -338.96 0 -85.55 0C167.87 0 373.61 194.31 373.61 433.65Z" id="a9NBOBEQS"></path><path d="M2615.3 827.23C2615.3 1111.5 2370.91 1342.3 2069.9 1342.3C1768.88 1342.3 1524.49 1111.5 1524.49 827.23C1524.49 542.95 1768.88 312.15 2069.9 312.15C2370.91 312.15 2615.3 542.95 2615.3 827.23Z" id="d2tR7REy"></path></defs><g><g><g><use xlink:href="#b67SWXotlp" opacity="1" fill="#ff4242" fill-opacity="1"></use></g><g><use xlink:href="#a34Gg5TXza" opacity="1" fill="#55c699" fill-opacity="1"></use></g><g><use xlink:href="#a9NBOBEQS" opacity="0.46" fill="#f2ff49" fill-opacity="1"></use></g><g><use xlink:href="#d2tR7REy" opacity="0.74" fill="#58355e" fill-opacity="1"></use></g></g></g></svg>